<?xml version="1.0" standalone="no"?>
<!DOCTYPE svg PUBLIC "-//W3C//DTD SVG 20010904//EN"
 "http://www.w3.org/TR/2001/REC-SVG-20010904/DTD/svg10.dtd">
<svg version="1.0" xmlns="http://www.w3.org/2000/svg"
 width="192.000000pt" height="192.000000pt" viewBox="0 0 192.000000 192.000000"
 preserveAspectRatio="xMidYMid meet">
<metadata>
Created by potrace 1.14, written by Peter Selinger 2001-2017
</metadata>
<g transform="translate(0.000000,192.000000) scale(0.100000,-0.100000)"
fill="#000000" stroke="none">
<path d="M1388 1591 c-3 -7 -96 -20 -185 -24 -18 -1 -33 -5 -33 -9 0 -5 -3 -7
-7 -6 -12 3 -82 -12 -112 -24 -14 -6 -37 -12 -49 -14 -27 -3 -132 -44 -146
-56 -6 -4 -18 -8 -27 -8 -10 0 -25 -7 -33 -16 -9 -8 -16 -13 -16 -10 0 3 -15
-3 -32 -14 -18 -10 -51 -28 -73 -39 -22 -11 -52 -32 -67 -46 -15 -14 -32 -25
-37 -25 -5 0 -17 -10 -26 -22 -8 -13 -18 -22 -20 -20 -3 1 -5 0 -5 -3 -1 -9
-45 -51 -51 -48 -3 1 -12 -9 -19 -22 -7 -13 -17 -22 -22 -19 -4 3 -8 -1 -8 -9
0 -7 -11 -24 -25 -37 -13 -12 -22 -27 -19 -31 3 -5 -3 -9 -12 -9 -10 0 -14 -3
-11 -7 4 -3 3 -11 -2 -17 -19 -23 -60 -108 -77 -158 -17 -52 -28 -240 -15
-263 3 -5 7 -19 8 -29 2 -11 7 -24 12 -30 4 -6 11 -24 15 -40 4 -16 16 -40 26
-53 l19 -24 20 47 c12 26 21 52 21 59 0 7 11 29 25 49 14 20 25 39 25 42 0 29
175 234 200 234 6 0 10 4 10 9 0 5 9 13 20 16 11 4 18 10 15 15 -3 5 5 12 19
16 14 3 30 12 37 20 6 8 15 11 20 8 5 -3 9 -1 9 5 0 5 14 12 30 16 16 4 30 10
30 14 0 13 69 30 76 19 4 -6 1 -14 -7 -18 -20 -12 -190 -184 -189 -192 0 -5
-14 -21 -32 -38 -17 -16 -27 -30 -23 -30 5 0 -1 -9 -12 -20 -12 -10 -24 -28
-28 -40 -3 -11 -11 -20 -16 -20 -5 0 -8 -3 -7 -7 1 -5 -5 -24 -14 -43 -38 -79
-55 -140 -57 -203 -1 -44 2 -67 9 -67 6 0 8 -4 5 -10 -7 -11 24 -70 36 -70 4
0 10 -8 13 -18 4 -10 12 -19 19 -20 6 -1 36 -8 65 -16 60 -17 209 -21 262 -8
19 5 42 11 50 13 8 2 21 10 28 16 7 7 20 13 28 13 14 0 24 7 59 37 7 7 17 13
20 13 10 0 85 81 85 91 0 5 3 9 8 9 4 0 18 17 32 37 14 20 31 43 38 50 7 7 11
13 8 13 -4 0 7 24 24 53 16 30 27 57 23 60 -3 4 -1 7 5 7 6 0 14 10 17 23 4
12 13 36 20 52 16 39 41 112 51 150 10 40 11 44 14 50 3 6 2 4 15 60 10 46 9
45 18 65 4 8 9 38 11 65 2 28 6 57 9 65 8 23 16 64 14 70 -1 3 8 20 21 38 13
17 20 32 16 32 -4 0 1 9 10 19 10 11 15 25 10 32 -4 8 -3 10 4 5 7 -4 12 -2
12 4 0 12 176 190 188 190 5 0 9 6 9 14 0 19 -87 32 -241 35 -66 1 -123 4
-127 7 -4 2 -9 0 -11 -5z"/>
<path d="M1914 125 c0 -72 1 -99 3 -62 2 37 2 96 0 130 -2 34 -3 4 -3 -68z"/>
</g>
</svg>
